<?xml version="1.0" standalone="no"?>
<!DOCTYPE svg PUBLIC "-//W3C//DTD SVG 20010904//EN"
 "http://www.w3.org/TR/2001/REC-SVG-20010904/DTD/svg10.dtd">
<svg version="1.0" xmlns="http://www.w3.org/2000/svg"
 width="512.000000pt" height="492.000000pt" viewBox="0 0 512.000000 492.000000"
 preserveAspectRatio="xMidYMid meet">

<g transform="translate(0.000000,492.000000) scale(0.100000,-0.100000)"
fill="#000000" stroke="none">
<path d="M2351 3733 c3 -195 26 -704 32 -709 4 -4 10 -5 13 -1 3 3 2 171 -2
374 -8 338 -10 368 -26 371 -15 3 -18 -4 -17 -35z"/>
<path d="M2737 3763 c-3 -5 -6 -172 -8 -372 -3 -260 -1 -365 7 -368 8 -3 13
69 18 239 3 134 9 303 12 376 6 116 5 132 -9 132 -9 0 -18 -3 -20 -7z"/>
</g>
</svg>
